<?xml version="1.0" standalone="no"?><!DOCTYPE svg PUBLIC "-//W3C//DTD SVG 1.1//EN" "http://www.w3.org/Graphics/SVG/1.1/DTD/svg11.dtd"><svg t="1618136675144" class="icon" viewBox="0 0 1024 1024" version="1.1" xmlns="http://www.w3.org/2000/svg" p-id="7151" xmlns:xlink="http://www.w3.org/1999/xlink" width="200" height="200"><defs><style type="text/css"></style></defs><path d="M639.2 78.1c-40 0-87.4 15.8-120.7 40.4-22.4 16.5-43.5 44.6-64.5 85.7-8.8 17.3-16.7 35-23.6 53.1l-27.7 75.1 77.5-20.2 53.5-14 22.7-5.9 6.8-22.6c7.5-24.9 14.6-40.2 22.4-48 3.5-3.5 8.8-7.2 20.4-9.5 1.6 3.6 3.5 7.1 5.7 10.4 8.2 12.6 22.2 20.2 37.2 20.3 9.1 0 22.4-2.7 34.7-15.7 10.7-11.3 18.8-29.5 23.7-42.7 7.2-19.5 10.5-35.7 9.8-48.2-1.3-21.4-13.7-39.4-34.1-49.3-12-5.9-26.8-8.9-43.8-8.9z" fill="#71C057" p-id="7152"></path><path d="M395.8 256.7c-20 0-42 1.8-67.1 5.4-31.7 4.6-58.2 10.7-81 18.6-30.1 10.5-54.4 24.4-74.2 42.3-23.5 21.2-39.9 47.7-49 78.9-9.3 31.9-10.9 69.4-4.8 111.6 6.3 43.4 14.2 83.7 23.6 119.6 12.1 46.3 26.9 87.1 44.1 121.2 21.5 42.5 47.4 76 77 99.7 35.9 28.7 77.3 43.3 123 43.3 10.9 0 21.8-0.8 32.6-2.4 65.8-9.5 150.6-49.5 180.6-186.5 8.6-39 12.3-84.6 11.1-135.6-0.9-39.1-4.7-82.3-11.4-128.6-4.8-33.6-13.6-63.1-25.9-87.6-12.3-24.5-28.6-44.9-48.3-60.5-33.6-26.5-76.2-39.4-130.3-39.4z" fill="#FFAB15" p-id="7153"></path><path d="M614.3 256.7c-54.1 0-96.7 12.9-130.2 39.4-19.8 15.7-36 36-48.3 60.5s-21 54-25.9 87.6c-6.7 46.2-10.5 89.5-11.4 128.6-1.2 50.9 2.6 96.6 11.1 135.6 30.1 137 114.8 177 180.6 186.5 10.8 1.6 21.7 2.4 32.6 2.4 45.7 0 87.1-14.6 123-43.3 29.6-23.6 55.5-57.2 77-99.7 17.2-34.1 32.1-74.9 44.1-121.2 9.4-35.9 17.3-76.2 23.5-119.6 6.1-42.1 4.5-79.7-4.8-111.5-9.1-31.2-25.6-57.8-49-78.9-19.8-17.9-44.2-31.8-74.3-42.3-22.8-8-49.3-14.1-81-18.6-25.1-3.7-47-5.5-67-5.5z" fill="#FFAB15" p-id="7154"></path><path d="M505.1 248.5c-32 0-59.1 2.2-82.8 6.9-31.3 6.1-57.4 16.4-79.6 31.3-26.2 17.6-46.3 41.5-59.7 71.1-13.7 30.2-20.7 67.1-20.7 109.7 0 46.7 2.4 90.1 7.1 128.9 6.1 50.6 16.3 95.2 30.4 132.7C349 860.4 438.6 887.9 505.1 887.9c66.4 0 156.1-27.6 205.4-158.8 14-37.4 24.3-82 30.4-132.7 4.7-38.8 7.1-82.2 7.1-128.9 0-42.6-7-79.5-20.7-109.7-13.4-29.6-33.5-53.5-59.7-71.1-22.5-15-48.5-25.2-79.9-31.3-23.5-4.7-50.7-6.9-82.6-6.9z" fill="#F6BD16" p-id="7155"></path><path d="M358.4 310.4c-13.5 9.6-23.3 22.6-28.9 38.3-3 8.5 10.5 12.2 13.5 3.7 4.2-12 12.1-22.5 22.4-29.9 7.4-5.2 0.4-17.3-7-12.1zM325 386c-9 0-9 14 0 14s9-14 0-14z" fill="#FFFFFF" p-id="7156"></path></svg>